<svg xmlns="http://www.w3.org/2000/svg" version="1.0" width="300.000000ptpx" height="424.000000ptpx" viewBox="0 0 300.000000 424.000000" preserveAspectRatio="xMidYMid meet">
<metadata fill="#ffffff">
Created by potrace 1.10, written by Peter Selinger 2001-2011
</metadata>
<g transform="translate(0.000000,424.000000) scale(0.100000,-0.100000)" fill="#ffffff">
<path d="M650 2650 l0 -30 900 0 900 0 0 30 0 30 -900 0 -900 0 0 -30z" fill="#ffffff"/>
<path d="M360 2573 c-25 -12 -65 -27 -90 -34 l-45 -11 3 -106 c3 -79 8 -109&#10;20 -121 14 -14 15 -6 9 96 -6 99 -5 111 11 116 9 3 25 8 35 12 15 6 16 4 7&#10;-20 -6 -16 -10 -163 -10 -378 0 -334 1 -354 20 -385 37 -60 70 -72 201 -72&#10;105 0 118 -2 135 -21 30 -34 69 -49 124 -49 55 0 94 15 124 49 19 21 26 21&#10;402 21 l384 0 16 -25 c29 -44 75 -65 145 -65 71 0 115 20 145 65 14 21 24 25&#10;64 25 40 0 50 -4 64 -25 30 -45 74 -65 145 -65 70 0 116 21 145 65 15 23 22&#10;25 99 25 94 0 133 17 167 72 19 31 20 51 20 393 0 339 -1 362 -20 392 -41 68&#10;48 63 -1171 66 l-1104 2 -45 -22z m405 -23 c18 -8 18 -9 2 -9 -10 -1 -32 -14&#10;-48 -30 -39 -39 -38 -75 2 -112 l31 -29 444 0 c253 0 444 -4 444 -9 0 -12 -47&#10;-23 -69 -16 -10 3 -29 -4 -44 -15 -31 -25 -36 -25 -67 0 -32 25 -45 25 -81 -1&#10;l-29 -20 -26 20 c-30 24 -56 26 -84 9 -16 -10 -24 -10 -39 -1 -13 8 -69 12&#10;-167 12 l-148 -1 -33 -33 c-26 -26 -33 -41 -33 -72 0 -21 7 -49 16 -61 13 -19&#10;13 -27 3 -57 -12 -32 -11 -37 12 -61 21 -23 30 -25 77 -22 36 3 59 12 76 27&#10;21 20 27 21 45 9 12 -7 21 -16 21 -20 0 -13 31 -9 61 9 26 16 29 16 47 0 23&#10;-21 51 -22 80 -1 20 14 24 14 44 0 13 -9 43 -16 68 -16 37 0 52 5 70 25 l24&#10;25 27 -26 c23 -22 33 -25 63 -20 20 4 37 2 41 -4 9 -15 102 -12 135 5 55 28&#10;70 60 70 146 0 74 -1 79 -33 111 -17 18 -41 38 -52 45 -17 10 -9 12 50 12 l70&#10;1 0 -191 c0 -236 -4 -229 142 -229 106 0 141 13 173 65 28 46 33 90 19 160 -9&#10;45 -9 71 -2 87 9 21 13 18 47 -49 42 -84 43 -95 15 -157 -24 -55 -19 -81 22&#10;-102 40 -20 90 -4 124 40 14 18 61 109 105 201 65 138 85 171 107 180 16 7 34&#10;19 42 28 7 10 18 17 23 17 5 0 8 -132 6 -325 l-3 -325 -27 -27 c-25 -24 -37&#10;-28 -117 -33 -83 -5 -92 -7 -123 -36 -46 -44 -69 -54 -125 -54 -44 0 -55 5&#10;-102 45 -47 40 -58 45 -102 45 -41 0 -55 -5 -86 -34 -52 -45 -75 -56 -123 -56&#10;-48 0 -71 11 -123 56 l-37 34 -384 0 -383 0 -43 -31 c-27 -20 -60 -34 -87 -37&#10;-37 -4 -52 1 -102 32 -43 26 -70 36 -100 36 -46 0 -52 11 -17 33 13 9 33 36&#10;45 60 20 41 21 58 21 349 0 304 0 305 -24 351 l-25 46 37 4 c67 7 117 6 137&#10;-3z m-224 -23 c58 -39 59 -43 59 -385 l0 -312 -33 -36 c-62 -68 -168 -51 -203&#10;31 -11 27 -14 95 -14 327 0 329 3 346 71 380 46 24 79 23 120 -5z m2063 -43&#10;c20 -20 20 -38 0 -58 -14 -15 -109 -16 -936 -14 -915 3 -921 3 -934 23 -12 18&#10;-11 24 2 43 l15 22 919 0 c822 0 920 -2 934 -16z m-525 -120 c34 -24 51 -73&#10;41 -118 -6 -27 -4 -45 7 -67 10 -21 14 -48 10 -82 -3 -41 -10 -56 -36 -79 -31&#10;-27 -35 -28 -131 -26 l-100 2 0 168 c0 166 0 169 25 193 21 22 33 25 92 25 47&#10;0 76 -5 92 -16z m192 6 c10 -6 34 -41 53 -77 l33 -66 27 59 c37 80 51 94 98&#10;94 21 0 38 -2 38 -5 0 -3 -40 -88 -88 -188 -77 -159 -93 -185 -120 -196 -17&#10;-7 -40 -10 -51 -6 -20 6 -19 8 12 71 l31 64 -62 125 c-34 69 -62 127 -62 130&#10;0 9 71 5 91 -5z m-1283 -82 c-9 -14 -28 -24 -47 -26 -23 -2 -31 -8 -31 -23 0&#10;-14 7 -19 30 -19 64 0 91 -70 45 -115 -19 -20 -34 -25 -75 -25 -37 0 -50 4&#10;-50 15 0 19 43 47 61 40 19 -7 43 10 35 24 -4 6 -18 11 -32 11 -29 0 -74 41&#10;-74 68 0 11 9 31 21 46 18 22 28 26 76 26 55 0 55 0 41 -22z m202 9 c0 -19&#10;-21 -37 -42 -37 -16 0 -18 -9 -18 -72 0 -73 -15 -108 -48 -108 -11 0 -13 17&#10;-10 90 l3 90 -32 0 c-36 0 -41 10 -17 34 20 21 164 23 164 3z m117 1 c11 -14&#10;63 -211 58 -216 -10 -10 -47 13 -55 34 -6 15 -18 24 -30 24 -12 0 -24 -9 -30&#10;-24 -8 -21 -45 -44 -55 -34 -6 6 46 202 57 215 13 17 43 17 55 1z m167 -48&#10;c21 -33 42 -62 46 -65 4 -3 5 15 3 39 -6 49 9 86 35 86 15 0 17 -11 14 -102&#10;-3 -81 -7 -106 -20 -115 -19 -16 -32 -17 -32 -3 0 6 -19 38 -42 71 l-43 61 -5&#10;-61 c-5 -57 -17 -80 -42 -81 -12 0 -9 189 2 211 18 34 43 21 84 -41z m266 40&#10;c16 -16 20 -33 20 -94 0 -69 -2 -76 -26 -95 -20 -15 -41 -21 -80 -21 l-54 0 0&#10;103 c0 67 4 107 12 115 20 20 105 15 128 -8z" fill="#ffffff"/>
<path d="M1956 2268 c1 -24 5 -42 8 -40 3 1 22 2 42 2 35 0 35 1 32 38 -3 36&#10;-5 37 -44 40 l-40 3 2 -43z" fill="#ffffff"/>
<path d="M1959 2155 c0 0 -1 -19 -2 -43 l-2 -42 41 0 c48 0 69 19 60 54 -5 20&#10;-13 25 -51 28 -25 2 -45 3 -46 3z" fill="#ffffff"/>
<path d="M1270 2221 c0 -11 -3 -26 -6 -35 -4 -11 -1 -16 10 -16 12 0 16 10 16&#10;35 0 19 -4 35 -10 35 -5 0 -10 -9 -10 -19z" fill="#ffffff"/>
<path d="M1650 2199 l0 -70 28 3 c26 3 27 6 30 61 3 54 1 58 -23 67 -15 6 -28&#10;10 -31 10 -2 0 -4 -32 -4 -71z" fill="#ffffff"/>
</g>
</svg>